<?xml version="1.0" encoding="utf-8"?>
<!-- Generator: Adobe Illustrator 24.3.0, SVG Export Plug-In . SVG Version: 6.00 Build 0)  -->
<svg version="1.1" id="Capa_1" xmlns="http://www.w3.org/2000/svg" xmlns:xlink="http://www.w3.org/1999/xlink" x="0px" y="0px"
	 viewBox="0 0 87.5 87.4" style="enable-background:new 0 0 87.5 87.4;" xml:space="preserve">
<style type="text/css">
	.st0{fill:#111111;}
	.st1{fill:#FFE600;}
</style>
<circle class="st0" cx="43.7" cy="43.9" r="41"/>
<g>
	
		<image style="overflow:visible;opacity:0.5;" width="84" height="77" xlink:href="34593508.png"  transform="matrix(1 0 0 1 8.2469 12.2469)">
	</image>
	<g>
		<g>
			<path class="st1" d="M59,20.1l12,0L58.3,39c-2,3-2,6.9,0.1,9.9l12.9,18.6l-11.9,0.2L46.4,48.9c-2-2.9-2.1-6.8-0.1-9.8
				C50.5,32.7,54.7,26.4,59,20.1z"/>
			<path class="st1" d="M28.4,20.1l-12,0L29,39c2,3,2,6.9-0.1,9.9L16.1,67.4L28,67.7l12.9-18.8c2-2.9,2.1-6.8,0.1-9.8
				C36.8,32.7,32.6,26.4,28.4,20.1z"/>
		</g>
	</g>
</g>
</svg>
