<svg width="12" height="12" viewBox="0 0 12 12" fill="none" xmlns="http://www.w3.org/2000/svg">
<g clip-path="url(#clip0_305_125)">
<path d="M4.875 0.75C4.57663 0.75 4.29048 0.868526 4.0795 1.0795C3.86853 1.29048 3.75 1.57663 3.75 1.875V2.25H1.125C0.826631 2.25 0.540483 2.36853 0.329505 2.5795C0.118526 2.79048 0 3.07663 0 3.375L0 4.413L5.7105 5.9355C5.90019 5.98602 6.09981 5.98602 6.2895 5.9355L12 4.413V3.375C12 3.07663 11.8815 2.79048 11.6705 2.5795C11.4595 2.36853 11.1734 2.25 10.875 2.25H8.25V1.875C8.25 1.57663 8.13147 1.29048 7.9205 1.0795C7.70952 0.868526 7.42337 0.75 7.125 0.75H4.875ZM4.875 1.5H7.125C7.22446 1.5 7.31984 1.53951 7.39017 1.60984C7.46049 1.68016 7.5 1.77554 7.5 1.875V2.25H4.5V1.875C4.5 1.77554 4.53951 1.68016 4.60984 1.60984C4.68016 1.53951 4.77554 1.5 4.875 1.5Z" fill="white"/>
<path d="M0 9.375C0 9.67337 0.118526 9.95951 0.329505 10.1705C0.540483 10.3815 0.826631 10.5 1.125 10.5H10.875C11.1734 10.5 11.4595 10.3815 11.6705 10.1705C11.8815 9.95951 12 9.67337 12 9.375V5.1375L6.09675 6.71025C6.03336 6.72717 5.96664 6.72717 5.90325 6.71025L0 5.1375V9.375Z" fill="white"/>
</g>
<defs>
<clipPath id="clip0_305_125">
<rect width="12" height="12" fill="white"/>
</clipPath>
</defs>
</svg>
