<svg id="Capa_1" data-name="Capa 1" xmlns="http://www.w3.org/2000/svg" viewBox="0 0 325.45 106.39"><defs><style>.cls-1{fill:#ffe600;}.cls-2{font-size:65.61px;font-family:HalenoirExpanded-Bold;font-weight:700;}.cls-3{letter-spacing:-0.01em;}.cls-4{letter-spacing:-0.01em;}.cls-5{letter-spacing:-0.01em;}.cls-6{font-size:38.06px;font-family:HalenoirExpanded-ExtraLight;font-weight:200;}.cls-7{letter-spacing:-0.01em;}.cls-8{letter-spacing:0em;}.cls-9{letter-spacing:-0.02em;}.cls-10{letter-spacing:-0.03em;}.cls-11{letter-spacing:0em;}</style></defs><path class="cls-1" d="M89.79,6.78l25.06.06L88.38,46.26a18.3,18.3,0,0,0,.15,20.62l27,39-24.94.51L63.5,67a18.3,18.3,0,0,1-.15-20.52Q76.58,26.63,89.79,6.78Z"/><path class="cls-1" d="M25.74,6.78.68,6.84,27.15,46.26A18.3,18.3,0,0,1,27,66.88l-27,39,24.94.51L52,67a18.3,18.3,0,0,0,.15-20.52Q39,26.63,25.74,6.78Z"/><text class="cls-2" transform="translate(124.08 55.77)"><tspan class="cls-3">L</tspan><tspan class="cls-4" x="41.14" y="0">e</tspan><tspan class="cls-5" x="81.23" y="0">xo</tspan><tspan x="160.23" y="0">r </tspan></text><text class="cls-6" transform="translate(126.52 93.78)"><tspan class="cls-7">A</tspan><tspan class="cls-8" x="28.35" y="0">bo</tspan><tspan class="cls-9" x="74.55" y="0">g</tspan><tspan class="cls-10" x="97.08" y="0">a</tspan><tspan class="cls-8" x="118.09" y="0">d</tspan><tspan class="cls-11" x="141.42" y="0">o</tspan><tspan x="164.22" y="0">s</tspan></text></svg>