<svg id="Capa_1" data-name="Capa 1" xmlns="http://www.w3.org/2000/svg" viewBox="0 0 283.48 90.97"><defs><style>.cls-1{fill:#ffe600;}.cls-2{fill:#fff;}</style></defs><path class="cls-1" d="M82,0l22.88.05-24.17,36a16.7,16.7,0,0,0,.14,18.83L105.5,90.5,82.73,91,58,55a16.72,16.72,0,0,1-.14-18.74Z"/><path class="cls-1" d="M23.5,0,.63.05l24.16,36a16.72,16.72,0,0,1-.13,18.83L0,90.5,22.77,91,47.51,55a16.7,16.7,0,0,0,.14-18.74Z"/><path class="cls-2" d="M116.84,44.74V2.79h9.77V37.61h24.27v7.13Z"/><path class="cls-2" d="M152.55,30.72v-2.1c0-8.51,7-14.62,17-14.68s17.08,6,17.08,14.68v2.93H162.44v.54a7.13,7.13,0,0,0,13.9,2.34h9.83c-1.56,7-7.85,11.15-16.6,11.15C159.27,45.58,152.55,39.7,152.55,30.72Zm24.09-4.44c-.6-3.77-3.17-6.17-6.95-6.17a7,7,0,0,0-7.19,6.17Z"/><path class="cls-2" d="M187.91,44.74l12.82-15-12.82-15h9.94l7.67,8.93h.36l7.67-8.93h9.95l-12.76,15,12.76,15h-9.95l-7.67-8.87h-.36l-7.67,8.87Z"/><path class="cls-2" d="M224.76,30.66v-2c0-8.57,7-14.68,17-14.74s17.08,6.11,17.08,14.74v2c0,9-6.71,14.92-17.08,14.92S224.76,39.64,224.76,30.66Zm24.14,1.13V27.72c0-4.13-2.69-7.61-7-7.61-4.61,0-7.25,3.42-7.25,7.61v4.07c0,4,2.64,7.55,7.07,7.55S248.9,35.81,248.9,31.79Z"/><path class="cls-2" d="M262.75,44.74v-30h9.76v.78a8.13,8.13,0,0,1-.84,3.65l-.36.78.18.12,1-1.38a11.2,11.2,0,0,1,5.4-4.07,13.09,13.09,0,0,1,3.53-.66h2v7.55l-3.72-.06c-4.79-.06-7.25,3.41-7.25,7.67V44.74Z"/><path class="cls-2" d="M116,79.45l11.26-24.34h2.61l11.26,24.34h-1.84l-3.72-8h-14l-3.69,8ZM122.25,70h12.69l-6.19-13.46h-.24Z"/><path class="cls-2" d="M145.57,75.27l-.42-.83-.07,0,.18.6a9.05,9.05,0,0,1,.31,2.12v2.26h-1.74V55.11h1.74V65.85h.17a7.41,7.41,0,0,1,7.13-4.34c5,0,8.58,3.89,8.58,9V71a8.63,8.63,0,0,1-8.58,9A8,8,0,0,1,145.57,75.27ZM159.72,71v-.48c0-4.56-3.34-7.51-6.92-7.51-4,0-7.13,2.75-7.13,6.71v2a6.89,6.89,0,0,0,7.2,6.78C156.38,78.51,159.72,75.45,159.72,71Z"/><path class="cls-2" d="M164,71v-.52a9,9,0,0,1,9.14-8.93c5.32,0,9.18,3.75,9.18,8.93V71a8.79,8.79,0,0,1-9.18,8.9A8.93,8.93,0,0,1,164,71Zm16.58,0v-.52a7.42,7.42,0,1,0-14.84,0V71a7.42,7.42,0,1,0,14.84,0Z"/><path class="cls-2" d="M185.46,82.64l1.81-.38c1,1.84,3.79,3.16,6.54,3.16,4,0,7-2.12,7-5.07V75.52h-.14a7.45,7.45,0,0,1-7.16,4.41c-5,0-8.58-3.89-8.58-9v-.48c0-5,3.65-9,8.58-9a7.79,7.79,0,0,1,7.3,4.66l.42.83.07,0-.17-.59a7.47,7.47,0,0,1-.32-2.12V62.07h1.71V80c0,4.14-3.48,6.88-8.73,6.88C190.16,86.88,186.79,85.18,185.46,82.64Zm15.19-10.88V69.71a6.86,6.86,0,0,0-7.16-6.78c-3.51,0-6.84,3.06-6.84,7.55V71c0,4.56,3.33,7.51,6.91,7.51C197.6,78.47,200.65,75.73,200.65,71.76Z"/><path class="cls-2" d="M205.55,75.17c0-3.13,2.26-4.87,6.19-5.42l6.88-1c1-.13,1.5-.59,1.5-1.21v-.35c0-2.43-2.33-4.21-5.74-4.21-2.54,0-5.14.94-6,3.27h-1.88c.94-2.71,3.75-4.69,7.89-4.69,4.42,0,7.47,2.22,7.47,5.49V79.45h-1.8V78.33a4.74,4.74,0,0,1,.41-2.15l.25-.49,0,0-.62.9c-1.64,2.26-4.56,3.37-7.65,3.37C208.47,79.93,205.55,78,205.55,75.17Zm14.57-1.56V70l-7.79,1.11c-3.3.49-5,1.64-5,4.07,0,2,2.19,3.34,5.11,3.34C216.29,78.51,220.12,76.42,220.12,73.61Z"/><path class="cls-2" d="M224.67,71v-.48c0-5.08,3.61-9,8.58-9a7.44,7.44,0,0,1,7.16,4.34h.14V55.11h1.74V79.38h-1.74v-2a7.89,7.89,0,0,1,.32-2.53l.13-.39,0,0-.42.83a8,8,0,0,1-7.3,4.66C228.32,79.93,224.67,76,224.67,71Zm15.74.77v-2c0-4-3.06-6.71-7.09-6.71-3.58,0-6.91,3-6.91,7.51V71c0,4.49,3.33,7.55,6.84,7.55A6.86,6.86,0,0,0,240.41,71.73Z"/><path class="cls-2" d="M246,71v-.52a9,9,0,0,1,9.14-8.93c5.32,0,9.18,3.75,9.18,8.93V71a8.79,8.79,0,0,1-9.18,8.9A8.93,8.93,0,0,1,246,71Zm16.58,0v-.52a7.42,7.42,0,1,0-14.84,0V71a7.42,7.42,0,1,0,14.84,0Z"/><path class="cls-2" d="M266.68,75.83h2.12c.73,1.63,2.89,2.68,5.77,2.68,3.45,0,6.12-1.5,6.12-3.55,0-1.67-1.46-2.67-4.86-3.33l-3.2-.63c-3.76-.73-5.49-2.19-5.49-4.55,0-2.89,3-4.87,7.43-4.87,3.83,0,6.68,1.56,7.2,4h-1.88C279.27,64,277.25,63,274.57,63c-2.92,0-5.7,1.08-5.7,3.45,0,1.94,1.6,2.6,4.84,3.26l2.92.56c3.75.73,5.8,2.43,5.8,4.69,0,3-3.09,5-7.86,5C270.4,79.93,267.27,78.33,266.68,75.83Z"/></svg>