<svg width="1330" height="283" viewBox="0 0 1330 283" fill="none" xmlns="http://www.w3.org/2000/svg">
<g opacity="0.3">
<mask id="mask0_99_125" style="mask-type:alpha" maskUnits="userSpaceOnUse" x="0" y="10" width="1330" height="264">
<rect y="10" width="1330" height="264" fill="#D9D9D9"/>
</mask>
<g mask="url(#mask0_99_125)">
</g>
<g clip-path="url(#clip0_99_125)">
<g opacity="0.34">
<path d="M243.109 0L314.271 0.150199L239.087 112.157C233.264 120.833 230.19 131.062 230.264 141.51C230.339 151.959 233.558 162.142 239.504 170.735L316.215 281.548L245.362 283L168.409 171.06C162.52 162.499 159.332 152.369 159.256 141.978C159.18 131.588 162.22 121.412 167.983 112.766L243.109 0Z" fill="#424242"/>
<path d="M61.1147 0L-10.0557 0.150199L65.1285 112.157C70.9543 120.832 74.0307 131.061 73.9563 141.51C73.8819 151.959 70.6601 162.144 64.7112 170.735L-12 281.548L58.8534 283L135.823 171.06C141.709 162.497 144.894 152.367 144.968 141.977C145.043 131.587 142.003 121.412 136.241 112.766L61.1147 0Z" fill="#424242"/>
</g>
<g opacity="0.34">
<path d="M401.146 0L329.975 0.150199L405.16 112.157C410.985 120.832 414.062 131.061 413.987 141.51C413.913 151.959 410.691 162.144 404.742 170.735L328.031 281.548L398.885 283L475.854 171.06C481.739 162.497 484.924 152.368 485 141.978C485.076 131.589 482.039 121.414 476.28 112.766L401.146 0Z" fill="#424242"/>
</g>
</g>
<g clip-path="url(#clip1_99_125)">
<g opacity="0.34">
<path d="M743.891 0L672.729 0.150199L747.913 112.157C753.736 120.833 756.81 131.062 756.736 141.51C756.661 151.959 753.442 162.142 747.496 170.735L670.785 281.548L741.638 283L818.591 171.06C824.48 162.499 827.668 152.369 827.744 141.978C827.82 131.588 824.78 121.412 819.017 112.766L743.891 0Z" fill="#424242"/>
<path d="M925.885 0L997.056 0.150199L921.872 112.157C916.046 120.832 912.969 131.061 913.044 141.51C913.118 151.959 916.34 162.144 922.289 170.735L999 281.548L928.147 283L851.177 171.06C845.291 162.497 842.106 152.367 842.032 141.977C841.957 131.587 844.997 121.412 850.759 112.766L925.885 0Z" fill="#424242"/>
</g>
<g opacity="0.34">
<path d="M585.854 0L657.025 0.150199L581.84 112.157C576.015 120.832 572.938 131.061 573.013 141.51C573.087 151.959 576.309 162.144 582.258 170.735L658.969 281.548L588.115 283L511.146 171.06C505.261 162.497 502.076 152.368 502 141.978C501.924 131.589 504.961 121.414 510.72 112.766L585.854 0Z" fill="#424242"/>
</g>
</g>
<g clip-path="url(#clip2_99_125)">
<g opacity="0.34">
<path d="M1259.11 0L1330.27 0.150199L1255.09 112.157C1249.26 120.833 1246.19 131.062 1246.26 141.51C1246.34 151.959 1249.56 162.142 1255.5 170.735L1332.22 281.548L1261.36 283L1184.41 171.06C1178.52 162.499 1175.33 152.369 1175.26 141.978C1175.18 131.588 1178.22 121.412 1183.98 112.766L1259.11 0Z" fill="#424242"/>
<path d="M1077.11 0L1005.94 0.150199L1081.13 112.157C1086.95 120.832 1090.03 131.061 1089.96 141.51C1089.88 151.959 1086.66 162.144 1080.71 170.735L1004 281.548L1074.85 283L1151.82 171.06C1157.71 162.497 1160.89 152.367 1160.97 141.977C1161.04 131.587 1158 121.412 1152.24 112.766L1077.11 0Z" fill="#424242"/>
</g>
</g>
</g>
<defs>
<clipPath id="clip0_99_125">
<rect width="497" height="283" fill="white" transform="translate(-12)"/>
</clipPath>
<clipPath id="clip1_99_125">
<rect width="497" height="283" fill="white" transform="matrix(-1 0 0 1 999 0)"/>
</clipPath>
<clipPath id="clip2_99_125">
<rect width="497" height="283" fill="white" transform="translate(1004)"/>
</clipPath>
</defs>
</svg>
